<?xml version="1.0" encoding="utf-8"?>
<!-- Generator: Adobe Illustrator 14.0.0, SVG Export Plug-In . SVG Version: 6.00 Build 43363)  -->
<!DOCTYPE svg PUBLIC "-//W3C//DTD SVG 1.1//EN" "http://www.w3.org/Graphics/SVG/1.1/DTD/svg11.dtd">
<svg version="1.1" id="Ebene_1" xmlns="http://www.w3.org/2000/svg" xmlns:xlink="http://www.w3.org/1999/xlink" x="0px" y="0px"
	 width="381.116px" height="85.304px" viewBox="0 0 381.116 85.304" enable-background="new 0 0 381.116 85.304"
	 xml:space="preserve">
<g>
	<path fill="#96BE0D" d="M0,0h12.53v12.917H0V0z M12.53,23.02v62.284H0V23.02H12.53z"/>
	<path fill="#96BE0D" d="M23.658,32.996V23.02h10.995v-2.813c0-7.163,1.597-12.32,4.783-15.476C42.62,1.577,47.809,0,54.99,0h12.791
		v9.974H56.655c-1.967,0-3.543,0.129-4.734,0.379c-1.193,0.255-2.155,0.742-2.878,1.458c-0.723,0.722-1.213,1.712-1.468,2.979
		c-0.255,1.266-0.384,2.869-0.384,4.812v3.419h19.567v9.976H47.19v52.308H34.653V32.996H23.658z"/>
	<path fill="#FFFFFF" d="M91.438,85.304H77.622V0h37.729c2.986,0,5.63,0.127,7.931,0.383c2.299,0.253,4.35,0.64,6.141,1.149
		c1.79,0.513,3.408,1.214,4.859,2.11c1.446,0.897,2.853,1.982,4.221,3.262c4.861,4.775,7.286,11.426,7.286,19.953
		c0,4.857-0.827,9.229-2.488,13.108c-1.654,3.881-3.975,7.012-6.953,9.399c-2.299,1.791-5.249,3.07-8.867,3.84
		c-3.615,0.765-8.486,1.146-14.606,1.146H91.438V85.304z M113.748,43.609c3.481,0,6.265-0.299,8.347-0.9
		c2.087-0.602,3.805-1.631,5.162-3.097c1.192-1.286,2.144-3.112,2.867-5.477c0.725-2.361,1.089-4.876,1.089-7.538
		c0-2.665-0.406-5.092-1.213-7.283s-1.937-3.974-3.377-5.35c-1.191-1.202-2.827-2.04-4.907-2.514
		c-2.082-0.471-4.907-0.71-8.478-0.71h-21.8v32.868H113.748z"/>
	<path fill="#FFFFFF" d="M176.997,0h17.907l33.893,85.304H214.34l-8.696-22.252H165.23l-9.081,22.252h-14.451L176.997,0z
		 M169.326,52.31H201.3l-15.607-41.952L169.326,52.31z"/>
	<path fill="#FFFFFF" d="M303.869,36.575v48.729H272.28c-4.095,0-7.676-0.146-10.745-0.448c-3.071-0.297-5.798-0.791-8.186-1.468
		c-2.39-0.687-4.539-1.602-6.459-2.753c-1.915-1.149-3.772-2.576-5.563-4.282c-3.834-3.663-6.63-8.166-8.377-13.494
		c-1.749-5.33-2.617-11.913-2.617-19.76c0-18.844,5.238-31.418,15.725-37.729c1.619-1.023,3.305-1.873,5.054-2.557
		c1.748-0.683,3.663-1.236,5.756-1.664c2.087-0.426,4.455-0.723,7.098-0.895C266.608,0.086,269.59,0,272.916,0h30.953v10.741
		h-29.736c-2.809,0-5.125,0.045-6.952,0.13c-1.831,0.086-3.403,0.257-4.726,0.515c-1.315,0.255-2.486,0.598-3.512,1.025
		c-1.021,0.429-2.082,0.986-3.186,1.67c-7.233,4.451-10.85,13.783-10.85,27.992c0,2.74,0.083,5.223,0.255,7.448
		c0.172,2.226,0.447,4.235,0.827,6.037c0.381,1.8,0.891,3.465,1.525,5.005c0.635,1.541,1.42,3.039,2.352,4.496
		c1.188,1.885,2.436,3.425,3.752,4.622c1.317,1.197,2.903,2.166,4.772,2.889c1.863,0.729,4.044,1.244,6.547,1.54
		c2.502,0.302,5.531,0.453,9.091,0.453h16.027V47.319h-26.223V36.575H303.869z"/>
	<path fill="#FFFFFF" d="M381.116,10.741h-24.812c-3.071,0-5.756,0.174-8.055,0.517c-2.305,0.344-4.332,0.927-6.08,1.745
		c-1.749,0.819-3.257,1.873-4.536,3.167c-1.282,1.29-2.472,2.882-3.581,4.776c-0.683,1.119-1.238,2.217-1.665,3.292
		c-0.426,1.077-0.785,2.217-1.087,3.422c-0.297,1.206-0.532,2.583-0.705,4.134c-0.17,1.55-0.294,3.315-0.378,5.294h50.899V47.83
		h-51.031c0.084,6.426,1.449,11.995,4.091,16.71c2.135,3.683,4.798,6.275,7.993,7.774c3.2,1.499,7.655,2.248,13.371,2.248h25.576
		v10.742h-28.008c-3.751,0-7.124-0.209-10.105-0.642c-2.987-0.421-5.646-1.107-7.993-2.044c-2.348-0.938-4.477-2.154-6.396-3.643
		c-1.916-1.494-3.691-3.352-5.308-5.568c-2.898-3.836-4.987-8.035-6.267-12.594c-1.281-4.56-1.915-10.044-1.915-16.437
		c0-17.306,4.986-29.881,14.96-37.727c2.981-2.303,6.63-3.986,10.935-5.053C345.323,0.533,350.677,0,357.075,0h24.041V10.741z"/>
</g>
</svg>
